<?xml version="1.0" ?><!DOCTYPE svg  PUBLIC '-//W3C//DTD SVG 1.1//EN'  'http://www.w3.org/Graphics/SVG/1.1/DTD/svg11.dtd'><svg enable-background="new 0 0 512 512" height="512px" id="Layer_1" version="1.1" viewBox="0 0 512 512" width="512px" xml:space="preserve" xmlns="http://www.w3.org/2000/svg" xmlns:xlink="http://www.w3.org/1999/xlink"><g id="card_x5F_employee_x5F_badge_x5F_identification"><path d="M465.5,128.5h-109v15h109c8.271,0,14,5.729,14,14v242c0,8.271-5.729,16-14,16h-417c-8.271,0-16-7.729-16-16   v-242c0-8.271,7.729-14,16-14h106v-15h-106c-16.5,0-31,12.5-31,29v242c0,16.5,14.5,31,31,31h417c16.5,0,29-14.5,29-31v-242   C494.5,141,482,128.5,465.5,128.5z" fill="#333333"/><path d="M322.5,113.5v-9c0-16.5-12.5-29-29-29h-74c-16.5,0-31,12.5-31,29v9h-19v63h172v-63H322.5z M203.5,104.5   c0-8.271,7.729-14,16-14h74c8.271,0,14,5.729,14,14v9h-104V104.5z" fill="#333333"/><g id="business_x5F_man_1_"><path d="M240.628,335.907c-3.875-7.75-12.702-16.361-36.598-21.313c-13.008-2.696-19.763-5.2-23.045-8.242    c0,38.609-25.078,73.999-25.078,73.999s-24.782-37.607-24.782-72.91c-4.274,2.786-13.872,5.086-25.695,8.013    c-21.744,5.382-28.791,12.258-34.23,20.668c-3.944,6.098-3.014,26.265-1.076,29.063c1.938,2.799,34.015,21.959,85.683,21.959    s81.592-17.653,84.822-21.313C243.857,362.171,244.503,343.657,240.628,335.907z" fill="#208F7C"/><path d="M164.134,323.261c-0.475,2.301-2.785,4.239-5.134,4.239h-5.553c-2.35,0-4.66-1.937-5.134-4.239    l-1.123-5.511c-0.475-2.301,1.06-4.25,3.409-4.25h11.249c2.35,0,3.883,1.949,3.409,4.25L164.134,323.261z" fill="#208F7C"/><path d="M156.055,368.999c2.977-5.174,6.855-12.594,10.337-21.38l-3.394-15.857    c-0.163-0.766-0.937-1.262-1.72-1.262h-9.683c-0.783,0-1.551,0.498-1.706,1.265l-3.474,17.132    C149.719,357.009,153.291,363.998,156.055,368.999z" fill="#208F7C"/><path d="M180.431,294.083c6.482-9.723,8.234-19.162,9.175-25.561c5.813-3.014,7.488-7.287,8.564-13.53    c1.076-6.243-0.747-7.563-1.631-7.465c-0.762,0.085-1.378,0.396-1.378,0.396c0.688-1.833,0.943-5.028,0.57-8.919    c2.641-26.964-15.584-33.88-20.938-33.884c-6.112-4.132-20.982-11.272-40.08-4.414c-27.26,9.788-19.259,42.415-19.258,42.418    c0.009,2.486,0.264,4.29,0.65,5.085c0,0-0.712-0.173-1.633-0.141c-2.376,0.083-2.799,1.507-2.152,6.243    c0.646,4.737,4.09,11.841,9.042,14.639c1.672,9.365,3.657,16.416,10.03,25.422c6.373,9.006,15.253,13.067,24.682,13.067    C165.109,307.441,173.948,303.807,180.431,294.083z" fill="#208F7C"/></g><rect fill="#333333" height="15" width="161" x="278.5" y="265.5"/><rect fill="#333333" height="15" width="161" x="278.5" y="310.5"/><rect fill="#333333" height="15" width="91" x="278.5" y="220.5"/><rect fill="#333333" height="15" width="55" x="384.5" y="220.5"/><rect fill="#333333" height="15" width="45.5" x="278.5" y="355.5"/><rect fill="#333333" height="15" width="100.5" x="339" y="355.5"/></g></svg>