<?xml version="1.0" ?><!DOCTYPE svg  PUBLIC '-//W3C//DTD SVG 1.1//EN'  'http://www.w3.org/Graphics/SVG/1.1/DTD/svg11.dtd'><svg enable-background="new 0 0 512 512" height="512px" id="Layer_1" version="1.1" viewBox="0 0 512 512" width="512px" xml:space="preserve" xmlns="http://www.w3.org/2000/svg" xmlns:xlink="http://www.w3.org/1999/xlink"><g id="text_x5F_document"><rect fill="#208F7C" height="15" width="158" x="229.5" y="106.5"/><rect fill="#208F7C" height="15" width="158" x="229.5" y="151.5"/><polygon fill="#208F7C" points="387.5,209.758 387.5,196.5 125.5,196.5 125.5,211.5 386.62,211.5  "/><polygon fill="#208F7C" points="387.5,254.758 387.5,241.5 125.5,241.5 125.5,256.5 386.62,256.5  "/><polygon fill="#208F7C" points="387.5,254.758 387.5,241.5 125.5,241.5 125.5,256.5 386.62,256.5  "/><polygon fill="#208F7C" points="387.5,299.758 387.5,286.5 125.5,286.5 125.5,301.5 386.62,301.5  "/><polygon fill="#208F7C" points="387.5,344.758 387.5,331.5 125.5,331.5 125.5,346.5 386.62,346.5  "/><polygon fill="#208F7C" points="387.5,394.758 387.5,381.5 125.5,381.5 125.5,396.5 386.62,396.5  "/><path d="M432.5,44.5c0-16.501-12.999-28-29.499-28H200.668h-0.834h-0.019c-6.85,0-14.148,1.915-18.304,5.941   l-91.947,91.744C84,119.248,80.5,126.249,80.5,134.499v0.834L80.501,460.5c0,16.5,14.001,32,30.501,32h292   c16.5,0,29.498-15.5,29.498-32V44.5z M403.002,477.5h-292c-7.968,0-15.502-8.519-15.502-17v-325h73.832   c16.125,0,30.168-12.452,30.168-28.666V31.5h203.501c8.537,0,14.499,5.052,14.499,13.001V460.5   C417.5,469.29,410.726,477.5,403.002,477.5z" fill="#333333"/></g></svg>